<svg xmlns="http://www.w3.org/2000/svg" viewBox="0 0 190 127.5"><defs><style>.cls-1,.cls-3{fill:#f36c23;}.cls-1,.cls-2{stroke:#fff;stroke-miterlimit:10;stroke-width:4px;}.cls-2,.cls-4{fill:#fff;}</style></defs><title>hardware_2</title><g id="Layer_2" data-name="Layer 2"><g id="Layer_1-2" data-name="Layer 1"><circle class="cls-1" cx="65.5" cy="99.5" r="3"/><polygon class="cls-2" points="126 104 126 2 2 2 2 104 48.5 104 48.5 108.5 37.5 108.5 37.5 118.5 90.5 118.5 90.5 108.5 79.5 108.5 79.5 104 126 104"/><circle class="cls-2" cx="178.5" cy="109.5" r="3"/><polygon class="cls-2" points="188 2 134 2 134 119 140.5 119 140.5 125.5 181.5 125.5 181.5 119 188 119 188 2"/><rect class="cls-3" x="13" y="13" width="105" height="79" rx="8" ry="8"/><path class="cls-4" d="M110,15a6,6,0,0,1,6,6V84a6,6,0,0,1-6,6H21a6,6,0,0,1-6-6V21a6,6,0,0,1,6-6h89m0-4H21A10,10,0,0,0,11,21V84A10,10,0,0,0,21,94h89a10,10,0,0,0,10-10V21a10,10,0,0,0-10-10Z"/><rect class="cls-1" x="140.5" y="11.5" width="40" height="9"/><rect class="cls-1" x="140.5" y="25.5" width="40" height="9"/></g></g></svg>