<svg xmlns="http://www.w3.org/2000/svg" viewBox="0 0 183 127"><defs><style>.cls-1{fill:#fff;}</style></defs><title>mobile</title><g id="Layer_2" data-name="Layer 2"><g id="Layer_1-2" data-name="Layer 1"><path class="cls-1" d="M169,6a1,1,0,0,1,1,1v96a1,1,0,0,1-1,1H17a1,1,0,0,1-1-1V7a1,1,0,0,1,1-1H169m0-6H17a7,7,0,0,0-7,7v96a7,7,0,0,0,7,7H169a7,7,0,0,0,7-7V7a7,7,0,0,0-7-7Z"/><path class="cls-1" d="M3,124v-2a12,12,0,0,1,12-12H180v7a7,7,0,0,1-7,7Z"/><path class="cls-1" d="M177,113v4a4,4,0,0,1-4,4H6.06A9,9,0,0,1,15,113H177m6-6H15A15,15,0,0,0,0,122v5H173a10,10,0,0,0,10-10V107Z"/></g></g></svg>