<svg xmlns="http://www.w3.org/2000/svg" viewBox="0 0 518 227"><defs><style>.cls-1{fill:#fff;}.cls-2{fill:none;stroke:#fff;stroke-miterlimit:10;stroke-width:6px;}</style></defs><title>nw_2</title><g id="Layer_2" data-name="Layer 2"><g id="Layer_1-2" data-name="Layer 1"><rect class="cls-1" x="0.5" y="136.5" width="151" height="90" rx="9.5" ry="9.5"/><path class="cls-1" d="M142,137a9,9,0,0,1,9,9v71a9,9,0,0,1-9,9H10a9,9,0,0,1-9-9V146a9,9,0,0,1,9-9H142m0-1H10A10,10,0,0,0,0,146v71a10,10,0,0,0,10,10H142a10,10,0,0,0,10-10V146a10,10,0,0,0-10-10Z"/><rect class="cls-1" x="183.5" y="136.5" width="151" height="90" rx="9.5" ry="9.5"/><path class="cls-1" d="M325,137a9,9,0,0,1,9,9v71a9,9,0,0,1-9,9H193a9,9,0,0,1-9-9V146a9,9,0,0,1,9-9H325m0-1H193a10,10,0,0,0-10,10v71a10,10,0,0,0,10,10H325a10,10,0,0,0,10-10V146a10,10,0,0,0-10-10Z"/><rect class="cls-1" x="366.5" y="136.5" width="151" height="90" rx="9.5" ry="9.5"/><path class="cls-1" d="M508,137a9,9,0,0,1,9,9v71a9,9,0,0,1-9,9H376a9,9,0,0,1-9-9V146a9,9,0,0,1,9-9H508m0-1H376a10,10,0,0,0-10,10v71a10,10,0,0,0,10,10H508a10,10,0,0,0,10-10V146a10,10,0,0,0-10-10Z"/><rect class="cls-1" x="183.5" y="0.5" width="151" height="90" rx="9.5" ry="9.5"/><path class="cls-1" d="M325,1a9,9,0,0,1,9,9V81a9,9,0,0,1-9,9H193a9,9,0,0,1-9-9V10a9,9,0,0,1,9-9H325m0-1H193a10,10,0,0,0-10,10V81a10,10,0,0,0,10,10H325a10,10,0,0,0,10-10V10A10,10,0,0,0,325,0Z"/><polyline class="cls-2" points="75.5 135.5 75.5 45.5 183 45.5"/><line class="cls-2" x1="259" y1="136" x2="259" y2="90.5"/><polyline class="cls-2" points="442 136 441.5 45.5 335 45.5"/></g></g></svg>